# xmcd
#
# Track frame offsets: 
#        150
#        46024
#        82130
#        114530
#        145864
#        187487
#        218854
#        242399
#        279379
#
# Disc length: 4152 seconds
#
# Revision: 4
# Processed by: cddbd v1.5.2PL0 Copyright (c) Steve Scherf et al.
# Submitted via: ExactAudioCopyFreeDBPlugin 1.0
#
DISCID=82103609
DTITLE=Various Artist - Jazz At The Pawnshop Vol. 1
DYEAR=1986
DGENRE=Jazz
TTITLE0=Limehouse Blues
TTITLE1=I'm Confessin'
TTITLE2=High Life
TTITLE3=Jeeps Blues
TTITLE4=Lady Be Good
TTITLE5=Take Five
TTITLE6=Everything Happens To Me
TTITLE7=Barbados
TTITLE8=Stuffy
EXTD=YEAR: 1986
EXTT0=
EXTT1=
EXTT2=
EXTT3=
EXTT4=
EXTT5=
EXTT6=
EXTT7=
EXTT8=
PLAYORDER=
